<svg width="0" height="0"><symbol xmlns="http://www.w3.org/2000/svg" id="moon-star" fill="none" viewBox="0 0 24 24"><g><g id="Icon" stroke="currentColor" stroke-linecap="round" stroke-linejoin="round" stroke-width="2"><path d="m18 2 .618 1.236c.265.53.398.796.575 1.026.158.204.34.387.545.545.23.177.495.31 1.026.575L22 6l-1.236.618c-.53.265-.796.398-1.026.575-.204.158-.387.34-.545.545-.177.23-.31.495-.575 1.026L18 10l-.618-1.236c-.265-.53-.398-.796-.575-1.026a2.996 2.996 0 0 0-.545-.545c-.23-.177-.495-.31-1.026-.575L14 6l1.236-.618c.53-.265.796-.398 1.026-.575.204-.158.387-.34.545-.545.177-.23.31-.495.575-1.026L18 2Zm3 11.39A7.617 7.617 0 1 1 10.611 3C5.78 3.458 2 7.527 2 12.479A9.521 9.521 0 0 0 11.521 22c4.952 0 9.02-3.78 9.479-8.61Z"/></g></g></symbol><symbol xmlns="http://www.w3.org/2000/svg" id="sun" fill="none" viewBox="0 0 24 24"><g><path stroke="currentColor" stroke-linecap="round" stroke-linejoin="round" stroke-width="2" d="M12 2v2m0 16v2M4 12H2m4.314-5.686L4.9 4.9m12.786 1.414L19.1 4.9M6.314 17.69 4.9 19.104m12.786-1.414 1.414 1.414M22 12h-2m-3 0a5 5 0 1 1-10 0 5 5 0 0 1 10 0Z"/></g></symbol></svg>